/* XPM */
static char *_5088d0d782a4591d93278af6d4113f0DkJIZuhBd7fiu8ZK[] = {
/* columns rows colors chars-per-pixel */
"40 40 144 2 ",
"   c None",
".  c #202020",
"X  c gray13",
"o  c #222222",
"O  c #232323",
"+  c gray14",
"@  c #252525",
"#  c gray15",
"$  c #272727",
"%  c #282828",
"&  c gray16",
"*  c #2A2A2A",
"=  c gray17",
"-  c #2C2C2C",
";  c #2D2D2D",
":  c gray18",
">  c #2F2F2F",
",  c gray19",
"<  c #313131",
"1  c #323232",
"2  c gray20",
"3  c #343434",
"4  c #353535",
"5  c gray21",
"6  c #373737",
"7  c gray22",
"8  c #393939",
"9  c #3A3A3A",
"0  c gray23",
"q  c #3C3C3C",
"w  c gray24",
"e  c #3E3E3E",
"r  c #3F3F3F",
"t  c gray25",
"y  c #414141",
"u  c gray26",
"i  c #434343",
"p  c #444444",
"a  c gray27",
"s  c #464646",
"d  c gray28",
"f  c #484848",
"g  c #494949",
"h  c gray29",
"j  c #4B4B4B",
"k  c #4C4C4C",
"l  c gray30",
"z  c #4E4E4E",
"x  c gray31",
"c  c #505050",
"v  c #515151",
"b  c gray32",
"n  c #535353",
"m  c gray33",
"M  c #555555",
"N  c #565656",
"B  c gray34",
"V  c #585858",
"C  c gray35",
"Z  c #5A5A5A",
"A  c #5B5B5B",
"S  c gray36",
"D  c #5D5D5D",
"F  c gray37",
"G  c #5F5F5F",
"H  c #606060",
"J  c gray38",
"K  c #626262",
"L  c gray39",
"P  c #646464",
"I  c #656565",
"U  c gray40",
"Y  c #676767",
"T  c #686868",
"R  c DimGray",
"E  c #6A6A6A",
"W  c #6C6C6C",
"Q  c #6D6D6D",
"!  c gray43",
"~  c gray44",
"^  c #717171",
"/  c #727272",
"(  c gray45",
")  c #747474",
"_  c #767676",
"`  c gray47",
"'  c #797979",
"]  c #7C7C7C",
"[  c gray49",
"{  c #7E7E7E",
"}  c gray50",
"|  c #808080",
" . c #818181",
".. c #838383",
"X. c #848484",
"o. c gray52",
"O. c #868686",
"+. c gray53",
"@. c #888888",
"#. c #898989",
"$. c gray54",
"%. c #8B8B8B",
"&. c gray55",
"*. c #8D8D8D",
"=. c #8E8E8E",
"-. c #909090",
";. c gray57",
":. c #929292",
">. c #959595",
",. c #979797",
"<. c #989898",
"1. c #9A9A9A",
"2. c #9B9B9B",
"3. c gray61",
"4. c gray62",
"5. c #9F9F9F",
"6. c #A0A0A0",
"7. c gray64",
"8. c #A4A4A4",
"9. c #A5A5A5",
"0. c gray66",
"q. c #A9A9A9",
"w. c #AAAAAA",
"e. c #ACACAC",
"r. c #AEAEAE",
"t. c gray69",
"y. c #B1B1B1",
"u. c #B2B2B2",
"i. c gray70",
"p. c #B4B4B4",
"a. c gray71",
"s. c #B7B7B7",
"d. c #BBBBBB",
"f. c #BCBCBC",
"g. c gray",
"h. c gray75",
"j. c #C0C0C0",
"k. c #C1C1C1",
"l. c gray76",
"z. c #C5C5C5",
"x. c #D0D0D0",
"c. c gray84",
"v. c #E1E1E1",
"b. c #E2E2E2",
/* pixels */
"                                                                                ",
"                                                                                ",
"                                                                                ",
"                                                                                ",
"                                                                                ",
"                                                                                ",
"                                                                                ",
"                                                                                ",
"                                      R                                         ",
"                                D K K R R U U K                                 ",
"                              B B D D C B C D U K U                             ",
"                              C R $.$.O.} =.-.=.) D                             ",
"                              R 9.j.j.g.p.e.<.$.O.D b                           ",
"                              ) p.g.d.p.u.0.=.| } R C                           ",
"                              <.<.O.O.5.5.( D D R ` (                           ",
"                              u.5.| ) 5.<.R ( K R } (                           ",
"                              u.g.u.0.p.5.) | | | | )                           ",
"                              u.p.g.p.u.<.W } O.` `                             ",
"                                0.e.7.7.} D W ) W (                             ",
"                                $.7.>.$.( U U U U D l                           ",
"                              d d | >.>.} ( U D B i d b                         ",
"                          K f 0 : ( 9.-.O.W B l i r i f b                       ",
"                  K K K D f 3 , , 5.b.-.U ` ` B r r i i d l b C                 ",
"                D K K C d , : * C x.c.D U j.-.f r r r i i f d f b B             ",
"              B D K B i , : * , e.b.=.f u.p.b i r r r i d f i d f l b C D       ",
"            C D K b r , : $ $ l z.$.3 3 $.U r r 0 r r r i d d i d d f l B C     ",
"            K K b 0 , : $ $ : ) W r , : i i 0 0 0 r r r i i i r d i d f b b     ",
"          U K l 0 , : $ $ * , W d 0 : , i r 3 0 0 r r r r i r r i r i d f l B   ",
"        R K l 0 * , , $ $ * , d i 0 , i r 0 0 0 r r r r r 0 3 0 0 3 r i d d l   ",
"      W K l 0 : * , 3 : $ * * : 0 0 r i 0 3 0 0 0 r r r 0 , 3 0 3 , 0 r i d f b ",
"    U K b r , * : : , 3 * $ $ * $ 3 i 0 0 0 0 0 0 r r 3 , 3 0 3 , , 0 r r i d l ",
"  K D b r 3 : : : : : , , * $ * * r r 0 3 0 0 0 0 0 3 , 3 3 3 3 , , 0 0 r r i f ",
"C D b i 3 , : : : : : : , : $ $ , i 0 3 3 3 0 0 0 , , , 3 3 3 3 : , 3 0 0 r i d ",
"C B i 3 , , : : : * * : : : : * r i 0 3 3 3 0 3 : , , , 3 3 3 , : , 3 3 0 r i d ",
"B b i 3 , , : : : : : : : : : 3 d r 0 0 3 , : * : , , , , 3 , , * : , 3 0 0 r i ",
"b l i 0 3 , : : : , : : : , , i d i r 3 : * * : , , , , 3 , , , : : , 3 3 0 0 i ",
"b f r 0 3 , : : : : : : : : 3 f i 3 : * * * : : , , , , , , 3 , : : , 3 3 0 0 0 ",
"l d i i 3 : : : : : : : : : 0 0 $ O O $ * : : : : : : : , 3 , : : , , 3 0 3 0 r ",
"f f f i 3 , , , : * * * * * , $ O O O O $ : : : , , : : , , : : , , 3 3 0 0 0 r ",
"l l f i 3 , , , * $ O O * $ : , $ $ $ $ * : 3 0 0 3 , , : : , , , 3 3 0 0 0 0 r "
};
