/* XPM */
static char *d00607e4f14349dc99e0fddb8b34e1e1ngE6WhLquSU789PA[] = {
/* columns rows colors chars-per-pixel */
"40 40 178 2 ",
"   c #717427",
".  c #2A3D77",
"X  c #523943",
"o  c #733D57",
"O  c #3C5A50",
"+  c #3E634F",
"@  c #376A5E",
"#  c #35406F",
"$  c #214273",
"%  c #34417A",
"&  c #256069",
"*  c #396864",
"=  c #306F73",
"-  c #43704D",
";  c #57705D",
":  c #606F4E",
">  c #617B5F",
",  c #587266",
"<  c #B92016",
"1  c #911B32",
"2  c #A61924",
"3  c #B41F26",
"4  c #9C323E",
"5  c #AC2B21",
"6  c #BA2424",
"7  c #B32B27",
"8  c #A72231",
"9  c #AA313B",
"0  c #BE3729",
"q  c #C21C1D",
"w  c #CC2D1E",
"e  c #C91D24",
"r  c #C62C29",
"t  c #C32924",
"y  c #D42C22",
"u  c #C83726",
"i  c #CA3639",
"p  c #C93739",
"a  c #9B5306",
"s  c #9E5110",
"d  c #AD570E",
"f  c #B15C07",
"g  c #AB521A",
"h  c #B05B17",
"j  c #8F7A05",
"k  c #927E08",
"l  c #B36A08",
"z  c #A87F0B",
"x  c #B97805",
"c  c #B86519",
"v  c #A77816",
"b  c #B07A19",
"n  c #9F4F36",
"m  c #9B5230",
"M  c #AB442E",
"N  c #C46F0E",
"B  c #C37A00",
"V  c #C65739",
"C  c #913646",
"Z  c #874D41",
"A  c #827F4F",
"S  c #A77365",
"D  c #CC4746",
"F  c #D14E4D",
"G  c #D15A55",
"H  c #D45756",
"J  c #C67043",
"K  c #CF6E5F",
"L  c #C86C48",
"P  c #CD6A65",
"I  c #CA6661",
"U  c #D26B68",
"Y  c #D06865",
"T  c #D47161",
"R  c #6B8E3C",
"E  c #6A8057",
"W  c #75885A",
"Q  c #908219",
"!  c #AE8F0E",
"~  c #A58B08",
"^  c #B78909",
"/  c #AE9000",
"(  c #B59909",
")  c #AA8211",
"_  c #AF8E12",
"`  c #B2821E",
"'  c #84A114",
"]  c #B8A10D",
"[  c #AEA71F",
"{  c #BDB015",
"}  c #BAA811",
"|  c #898931",
" . c #938D3E",
".. c #839F3D",
"X. c #BE8128",
"o. c #C3B918",
"O. c #C08229",
"+. c #C3BD25",
"@. c #BBC716",
"#. c #ACC418",
"$. c #CEC109",
"%. c #C5C419",
"&. c #C3D214",
"*. c #B4964B",
"=. c #B7A04D",
"-. c #BAB243",
";. c #9C9969",
":. c #B0A16A",
">. c #B7B278",
",. c #CF8060",
"<. c #CAA46E",
"1. c #CEA670",
"2. c #D0B67E",
"3. c #0F4B8E",
"4. c #0D4B84",
"5. c #11458E",
"6. c #114C8E",
"7. c #05538A",
"8. c #004E94",
"9. c #004A9A",
"0. c #00479A",
"q. c #035095",
"w. c #0A5495",
"e. c #02529A",
"r. c #0B5699",
"t. c #19598D",
"y. c #274C84",
"u. c #55689E",
"i. c #58689D",
"p. c #475BA5",
"a. c #4F60A7",
"s. c #576AA4",
"d. c #5F70A2",
"f. c #6373A3",
"g. c #6C7BA6",
"h. c #7483AA",
"j. c #AFAD81",
"k. c #B7B58A",
"l. c #9F99B5",
"z. c #DC8483",
"x. c #E1949A",
"c. c #C5A4AB",
"v. c #C0C086",
"b. c #C8CD9A",
"n. c #EAE392",
"m. c #D8DAB2",
"M. c #E6E0AA",
"N. c #E7EEBC",
"B. c #F2EEBE",
"V. c #8C9FC1",
"C. c #8EA1C2",
"Z. c #99ADC6",
"A. c #ADB3C6",
"S. c #A1B2CD",
"D. c #B2B6C7",
"F. c #B4BACA",
"G. c #BABDCA",
"H. c #D9CDCD",
"J. c #DED1CF",
"K. c #DCDCDC",
"L. c #E1C8C8",
"P. c #ECD3DC",
"I. c #F2C5CA",
"U. c #E3E1DE",
"Y. c #DCDFE0",
"T. c #DEE7E7",
"R. c #ECECE4",
"E. c #E2EDED",
"W. c #E9E7E3",
"Q. c #FBE9ED",
"!. c #E9F2ED",
"~. c #E0E7F1",
"^. c #E4ECF4",
"/. c #FBECF1",
"(. c #FBF1F1",
"). c #FFFFFF",
"_. c #F7F6F5",
"`. c #E5F4FC",
/* pixels */
"q.8.q.q.q.q.q.q.q.q.q.q.q.q.q.q.q.q.8.r.^.).).).).).).).).).).).).).).).).).).).",
"q.8.8.8.8.8.8.8.8.8.8.8.8.8.8.8.8.8.8.w.^.).).).).).).).).).).).).).).).).).).).",
"q.8.8.8.8.8.8.8.8.8.8.8.8.8.8.8.8.8.8.r.^.).).).).).).).).).).).).).).).).).).).",
"q.8.8.8.8.8.8.8.8.8.8.8.8.8.8.8.8.8.8.w.E.).).).).).).).).).).).).).).).).).).).",
"q.8.8.8.8.8.8.8.8.8.8.8.8.8.8.8.8.q.9.- n.).).).).).).).).).).).).).).).).).).).",
"q.8.8.8.8.8.8.8.8.8.8.8.8.8.8.8.8.q.9.& B.).).).).).).).).).).).).).).).).).).).",
"q.8.8.8.8.8.8.8.8.8.8.8.8.8.8.8.9.8.9.* M.).).).).).).).).).).).).).).).).).).).",
"q.8.8.8.8.8.8.8.8.8.8.8.8.8.8.t.; , :    .;.k.j.R.).).).).).).).).).).).).).).).",
"q.8.8.8.8.8.8.8.8.8.8.8.8.8.9.W * W @ + k.b.>.m.>.).).).).).).).).).).).).).).).",
"q.8.8.8.8.8.8.8.8.8.8.8.8.8.w.E 9.> . O 2.P.>._.v._.).).).).).).).).).).).).).).",
"q.8.8.8.8.8.8.8.8.8.8.8.8.8.r.A 1 Q d _ ^ s z 8 :.).).).).).).).).).).).).).).).",
"q.8.8.8.8.8.8.8.8.8.8.8.8.8.9.| f } ! ) ) ! { a -.).).).).).).).).).).).).).).).",
"q.8.8.8.8.8.8.8.8.8.8.8.8.8.0.= ! b v ` ` b v z N.).).).).).).).).).).).).).).).",
"q.8.8.8.8.8.8.8.8.8.8.8.8.8.8.9.  [ @.+.o.%.Q | ).).).).).).).).).).).).).).).).",
"q.8.8.8.8.8.8.8.8.8.8.8.8.8.8.9.R #.&.%.$.@.' ..).).).).).).).).).).).).).).).).",
"q.8.8.8.8.8.8.8.8.8.8.8.8.8.9.7.k x h g g g a j R.).).).).).).).).).).).).).).).",
"q.8.8.8.8.8.8.8.8.8.8.8.8.8.8.7.X 1 2 3 2 2 8 S _.).).).).).).).).).).).).).).).",
"q.8.8.8.8.8.8.8.8.8.8.8.8.8.8.8.8.4.$ # c.L.W.).).).).).).).).).).).).).).).).).",
"q.8.8.8.8.8.8.8.8.8.8.8.8.8.3.m M 9 9 n L H F V J /.).).).).).).).).).).).).).).",
"q.8.8.8.8.8.8.8.8.8.8.8.8.q.5.( N e e ^ x q e l ] Q.).).).).).).).).).).).).).).",
"q.8.8.8.8.8.8.8.8.8.8.8.8.8.6.v c i i X.O.i i c ` /.).).).).).).).).).).).).).).",
"q.8.8.8.8.8.8.8.8.8.8.8.8.8.6.3 Y K.J.l.l.J.K.I r (.).).).).).).).).).).).).).).",
"q.8.8.8.8.8.8.8.8.8.8.8.8.8.6.6 U E.K.s.u.K.E.P r (.).).).).).).).).).).).).).).",
"q.8.8.8.8.8.8.8.8.8.8.8.8.8.6.6 U T.K.d.i.K.T.P r (.).).).).).).).).).).).).).).",
"q.8.8.8.8.8.8.8.8.8.8.8.8.8.6.6 U !.R.A.A.R.!.P r (.).).).).).).).).).).).).).).",
"q.8.8.8.8.8.8.8.8.8.8.8.8.8.6.7 P S.D.F.F.D.S.I u /.).).).).).).).).).).).).).).",
"q.8.8.8.8.8.8.8.8.8.8.8.8.q.5.^ *.p.f.d.u.g.p.*.^ /.).).).).).).).).).).).).).).",
"q.8.8.8.8.8.8.8.8.8.8.8.8.8.6.~ =.a.h.f.d.h.a.*.( /.).).).).).).).).).).).).).).",
"q.8.8.8.8.8.8.8.8.8.8.8.8.8.3.5 T V.G.A.A.G.C.K 0 (.).).).).).).).).).).).).).).",
"q.8.8.8.8.8.8.8.8.8.8.8.8.8.8.7 F W.U.F.F.U.R.D p ).).).).).).).).).).).).).).).",
"q.8.8.8.8.8.8.8.8.8.8.8.8.8.q.4 u H.Y.u.u.K.H.t G ).).).).).).).).).).).).).).).",
"q.8.8.8.8.8.8.8.8.8.8.8.8.8.e.o B <.~.f.i.~.1.l z.).).).).).).).).).).).).).).).",
"q.8.8.8.8.8.8.8.8.8.8.8.8.8.e.% ( l x.Z.Z.x.l / I.).).).).).).).).).).).).).).).",
"q.8.8.8.8.8.8.8.8.8.8.8.8.8.8.9.Z w 6 G G r < ,.).).).).).).).).).).).).).).).).",
"q.8.8.8.8.8.8.8.8.8.8.8.8.8.8.8.3.9 y t t q D /.).).).).).).).).).).).).).).).).",
"q.8.8.8.8.8.8.8.8.8.8.8.8.8.8.8.e.6.C r t G Q.).).).).).).).).).).).).).).).).).",
"q.8.8.8.8.8.8.8.8.8.8.8.8.8.8.8.8.8.8.y.L.).).).).).).).).).).).).).).).).).).).",
"q.8.8.8.8.8.8.8.8.8.8.8.8.8.8.8.8.8.8.e.`.).).).).).).).).).).).).).).).).).).).",
"q.8.8.8.8.8.8.8.8.8.8.8.8.8.8.8.8.8.8.w.^.).).).).).).).).).).).).).).).).).).).",
"q.8.q.q.q.q.q.q.q.q.q.q.q.q.q.q.q.q.8.r.^.).).).).).).).).).).).).).).).).).).)."
};
