/* XPM */
static char *a0b48a605a764acddc68ebdb1f186e96AE4Tb5xHBoDQWqnv[] = {
/* columns rows colors chars-per-pixel */
"40 40 120 2 ",
"   c None",
".  c #2D2926",
"X  c #353128",
"o  c #46433E",
"O  c #56534E",
"+  c #655E54",
"@  c #6D655A",
"#  c #736E64",
"$  c #747067",
"%  c #77746C",
"&  c #79736B",
"*  c #7E786C",
"=  c #7D7973",
"-  c #81796C",
";  c #837C73",
":  c #878070",
">  c #8C8676",
",  c #87827E",
"<  c #8C867D",
"1  c #8D8A7C",
"2  c #888580",
"3  c #8C8983",
"4  c #928D83",
"5  c #96918A",
"6  c #9C968C",
"7  c #9D998D",
"8  c #9D9A95",
"9  c #A19D94",
"0  c #ABA494",
"q  c #A7A39B",
"w  c #AAA59C",
"e  c #AAA5A2",
"r  c #ACABA4",
"t  c #B6B1A2",
"y  c #BDB7A7",
"u  c #BCB6AD",
"i  c #BDB9AE",
"p  c #BFBAB3",
"a  c #C6BEB1",
"s  c #C0BFBA",
"d  c #C3C1B5",
"f  c #C9C2B6",
"g  c #C6C1BB",
"h  c #D4CEBE",
"j  c #DAD4BD",
"k  c #CFCCC4",
"l  c #D2CEC6",
"z  c #DCD6C3",
"x  c #DED8C4",
"c  c #D5D2CB",
"v  c #DCD6CA",
"b  c #DED9CB",
"n  c #D7D3D0",
"m  c #DAD5D2",
"M  c #DBDAD4",
"N  c #DFDDD9",
"B  c #E1DAC7",
"V  c #E3DDCA",
"C  c #E4DED2",
"Z  c #E2DCD8",
"A  c #E7E1CB",
"S  c #EAE3CF",
"D  c #E6E1D3",
"F  c #EAE5D2",
"G  c #EEE9D5",
"H  c #E7E2DA",
"J  c #EAE6DA",
"K  c #ECE9DB",
"L  c #F2EBD7",
"P  c #F4EFDC",
"I  c #F4EDDE",
"U  c #F4EEDE",
"Y  c #F1ECDB",
"T  c #F7F1DF",
"R  c #F9F2DF",
"E  c #E8E7E2",
"W  c #EFEBE0",
"Q  c #EDE8E2",
"!  c #EEEAE9",
"~  c #EEEDE9",
"^  c #F1EAE0",
"/  c #F1EDE1",
"(  c #F1ECE6",
")  c #F2EEE4",
"_  c #F6F0E0",
"`  c #F6F0E4",
"'  c #F6F2E6",
"]  c #F7F3E7",
"[  c #F6F0E0",
"{  c #F4F1E8",
"}  c #F7F3E8",
"|  c #F6F1EB",
" . c #F5F3EA",
".. c #F4F1EC",
"X. c #F9F9EC",
"o. c #FCF8EF",
"O. c #FEFAEE",
"+. c #F5F4F0",
"@. c #F9F4F0",
"#. c #FAF5F2",
"$. c #F8F8F0",
"%. c #FFFFF2",
"&. c #FDF8F4",
"*. c #FCFBF6",
"=. c #FCFCF4",
"-. c #FFFFF4",
";. c #FFFCF7",
":. c #FFFFF6",
">. c #FDFCF5",
",. c #FFFEF9",
"<. c #FFFFF9",
"1. c #FFFEFA",
"2. c #FFFFFA",
"3. c #FFFEFB",
"4. c #FFFFFB",
"5. c #FFFEFC",
"6. c #FFFFFC",
"7. c #FFFFFD",
"8. c #FFFFFE",
"9. c #FFFFFB",
/* pixels */
"                                                                                ",
"                                                                                ",
"                                                                                ",
"                                                                                ",
"                                  .                                             ",
"                                  O o                                           ",
"                                  = 2                                           ",
"                                    o.                                          ",
"                                    K                                           ",
"                                    K b                                         ",
"                                    C H M                                       ",
"                                    K K Z k                                     ",
"                                  F F V W w r                                   ",
"                                  L V J ' l %                                   ",
"                                  R V J H } 3 M                                 ",
"                                  F G D Y } l c                                 ",
"                                I G F V _ G K H :.                              ",
"                                T G F V I G J J X.                              ",
"                              W Y G S x Y Y G H v c                             ",
"                              K Y G F x Y Y Y D C w k                           ",
"                            K K I Y G B Y Y G C / i o                           ",
"                            K Y Y Y G V Y G G V D J X ,                         ",
"                          K G Y Y G F V Y F J F C :.q #                         ",
"                          K G G I G F V Y S F D C I H u 6.                      ",
"                        } H Y F Y Y F F V F F F D D H ( ,.                      ",
"                      Z l ' J G Y G F F B F F S F C ^ K } 6.                    ",
"                      5 9 ' F F L F F G B S F S F C f 9 g @.                    ",
"                    ! 3 7 v Y V G F F G B F F V F f * + 7 W ,.                  ",
"                  6.m , & w Y G F S F G V F S V D y ; < ; p &.                  ",
"                  ,.H % 5 & a F F S V F S F V B B 0 @ ; # w @.,.                ",
"                  6.e ; ; # - B F F B V F F V B Y t # ; # < m ,.                ",
"                6.+.8 = # 4 4 0 F S x B S F B V B : @ 6 ; $ g ,.                ",
"                ,.M 3 8 q p d t z A S j V S z V y > < 1 % ; u :.                ",
"                ,.N s E &.$.:.%.G S A j V G z h 0 1 7 w 4 = w ,.                ",
"                :.~ ~ ,.,.:.,.:._ V x z b x h x / K ( ( c 8 w $.                ",
"                  6.6.        :.o.C v b v v D o.%.:.,.,.&.N n ,.                ",
"                                ,.J b l c J @.,.        6.6.*.6.                ",
"                                    ....@.,.,.                                  ",
"                                                                                ",
"                                                                                "
};
