/* XPM */
static char *d1726f912ed34bf5e7636243733cae2ee0bV54XXhRCYXapC[] = {
/* columns rows colors chars-per-pixel */
"40 40 248 2 ",
"   c #006600",
".  c #006700",
"X  c #1F5A00",
"o  c #E00D00",
"O  c red",
"+  c #1E5A00",
"@  c #E10C00",
"#  c #006500",
"$  c #2A6100",
"%  c #DC1A00",
"&  c #357E00",
"*  c #88AB00",
"=  c #AEBA00",
"-  c #D4AC00",
";  c #E28700",
":  c #F03400",
">  c #FE0000",
",  c #026600",
"<  c #5C9300",
"1  c #ACBF00",
"2  c #699A00",
"3  c #79A100",
"4  c #E07900",
"5  c #E66900",
"6  c #DEAB00",
"7  c #E95900",
"8  c #FD0100",
"9  c #4D8B01",
"0  c #A6BB0C",
"q  c #337D0F",
"w  c #04680E",
"e  c #57920E",
"r  c #E8590E",
"t  c #F9070D",
"y  c #EC340E",
"u  c #DCA50B",
"i  c #EC4B01",
"p  c #1A7000",
"a  c #B0B90E",
"s  c #B3853D",
"d  c #A75B39",
"f  c #B84938",
"g  c #B66538",
"h  c #D25A37",
"j  c #E83436",
"k  c #D84736",
"l  c #C87E3B",
"z  c #D6AD0C",
"x  c #F51A00",
"c  c #749F00",
"v  c #D2C70E",
"b  c #BB8B18",
"n  c #D74C00",
"m  c #D14F00",
"M  c #CF5100",
"N  c #D35000",
"B  c #BD8A1A",
"V  c #D3B30E",
"C  c #DD6900",
"Z  c #136D00",
"A  c #C3D200",
"S  c #F1E80E",
"D  c #D67616",
"F  c #E34E16",
"G  c #F64749",
"H  c #DD854B",
"J  c #DD864B",
"K  c #F64649",
"L  c #E24E15",
"P  c #D46C18",
"I  c #D3A90E",
"U  c #D2A700",
"Y  c #F61000",
"T  c #347D00",
"R  c #D4D600",
"E  c #E4DC0E",
"W  c #F12F13",
"Q  c #F8494C",
"!  c #FCF7F6",
"~  c #CFD0E6",
"^  c #CECFE6",
"/  c #FCF6F5",
"(  c #F74648",
")  c #EF2515",
"_  c #E4590E",
"`  c #E18400",
"'  c #F13500",
"]  c DarkGreen",
"[  c #569000",
"{  c #A2B900",
"}  c #DCD80E",
"|  c #F13113",
" . c #F84B4D",
".. c #FFFEFC",
"X. c #9CAAD5",
"o. c #9BA9D4",
"O. c #FFFCFB",
"+. c #F74A49",
"@. c #F21816",
"#. c #F50B0F",
"$. c #EB4F00",
"%. c #EA5700",
"&. c #6B9B00",
"*. c #8DAB00",
"=. c #C2C00E",
"-. c #CC5F13",
";. c #D9744D",
":. c #F7F3F7",
">. c #D2D9EC",
",. c #D1D8EC",
"<. c #F6F1F6",
"1. c #D87649",
"2. c #CC5F14",
"3. c #DE900D",
"4. c #DE8400",
"5. c #E46A00",
"6. c #7EA300",
"7. c #A4B900",
"8. c #60890E",
"9. c #A88613",
"0. c #C39949",
"q. c #8692C7",
"w. c #91A0CF",
"e. c #92A0CF",
"r. c #868FC6",
"t. c #C09845",
"y. c #C18016",
"u. c #E45D0F",
"i. c #DBA700",
"p. c #DC7A00",
"a. c #7DA100",
"s. c #A9BA00",
"d. c #74950E",
"f. c #CF4213",
"g. c #E35F49",
"h. c #808EC5",
"j. c #8E9ECE",
"k. c #8F9ECE",
"l. c #808CC3",
"z. c #E05B45",
"x. c #E23E16",
"c. c #E2690F",
"v. c #D8A700",
"b. c #D97B01",
"n. c #FD0000",
"m. c #6E9D00",
"M. c #7FA400",
"N. c #8CA40C",
"B. c #E62912",
"V. c #FA4347",
"C. c #EEECF2",
"Z. c #D4DAEC",
"A. c #EEEAF1",
"S. c #FA3F43",
"D. c #EE3116",
"F. c #DB8F0D",
"G. c #E18000",
"H. c #E66D00",
"J. c #5A9200",
"K. c #508D00",
"L. c #046309",
"P. c #BD2C19",
"I. c #F72926",
"U. c #FDE8E6",
"Y. c #A1ADD7",
"T. c #9FACD6",
"R. c #FDE7E5",
"E. c #F52725",
"W. c #EE5120",
"Q. c #E5820B",
"!. c #E55A00",
"~. c #EB5700",
"^. c #378000",
"/. c #84A700",
"(. c #659A03",
"). c #C66F20",
"_. c #C65F05",
"`. c #E5B48C",
"'. c #CBD2E9",
"]. c #C9D0E8",
"[. c #E3B48B",
"{. c #C35B06",
"}. c #E28826",
"|. c #F2F003",
" X c #DBB700",
".X c #F13200",
"XX c #126D00",
"oX c #B0C000",
"OX c #A6BB00",
"+X c #6E7F1B",
"@X c #B68110",
"#X c #E4480F",
"$X c #F66365",
"%X c #F66264",
"&X c #E3490F",
"*X c #C08513",
"=X c #DFC51E",
"-X c #EAEE00",
";X c #E9C400",
":X c #F61100",
">X c #6E9B00",
",X c #B2BF00",
"<X c #87A906",
"1X c #C17E26",
"2X c #FC0F0A",
"3X c #F8120B",
"4X c #D6812C",
"5X c #D8CB06",
"6X c #D4D900",
"7X c #E57400",
"8X c #1D7300",
"9X c #B3C300",
"0X c #93AF00",
"qX c #93AC0D",
"wX c #AE6F2D",
"eX c #D4372A",
"rX c #E8332B",
"tX c #DB6430",
"yX c #DF940E",
"uX c #DC9500",
"iX c #DAB100",
"pX c #F11F00",
"aX c #4D8C00",
"sX c #9CB500",
"dX c #2A7700",
"fX c #066704",
"gX c #5A8E15",
"hX c #E25A15",
"jX c #F50A04",
"kX c #EC2D00",
"lX c #DE9C00",
"zX c #ED4C00",
"xX c #609500",
"cX c #AEC000",
"vX c #78A100",
"bX c #DF7900",
"nX c #DDAE00",
"mX c #E95E00",
"MX c #FD0200",
"NX c #388000",
"BX c #8BAD00",
"VX c #B2BC00",
"CX c #D4AF00",
"ZX c #E38B00",
"AX c #EF3700",
"SX c #2C6200",
"DX c #DC1C00",
"FX c white",
/* pixels */
"                            . X o O O O O O O O O O O O O O O O O O O O O O O O ",
"                            . X o O O O O O O O O O O O O O O O O O O O O O O O ",
"                            . X o O O O O O O O O O O O O O O O O O O O O O O O ",
"                            . X o O O O O O O O O O O O O O O O O O O O O O O O ",
"                            . X o O O O O O O O O O O O O O O O O O O O O O O O ",
"                            . X o O O O O O O O O O O O O O O O O O O O O O O O ",
"                            . X o O O O O O O O O O O O O O O O O O O O O O O O ",
"                            . X o O O O O O O O O O O O O O O O O O O O O O O O ",
"                            . + @ O O O O O O O O O O O O O O O O O O O O O O O ",
"                          #   $ % O O O O O O O O O O O O O O O O O O O O O O O ",
"                        # & * = - ; : > O O O O O O O O O O O O O O O O O O O O ",
"                      , < 1 2 3 4 5 6 7 8 O O O O O O O O O O O O O O O O O O O ",
"                    # 9 0 q w e r t y u i O O O O O O O O O O O O O O O O O O O ",
"                  # p a s d f g h j k l z x O O O O O O O O O O O O O O O O O O ",
"                  # c v b n O m M O N B V C > O O O O O O O O O O O O O O O O O ",
"                  Z A S D F G H J K L P I U Y O O O O O O O O O O O O O O O O O ",
"                # T R E W Q ! ~ ^ / ( ) _ ` ' O O O O O O O O O O O O O O O O O ",
"                ] [ { } |  ...X.o.O.+.@.#.$.%.O O O O O O O O O O O O O O O O O ",
"                ] &.*.=.-.;.:.>.,.<.1.2.3.4.5.O O O O O O O O O O O O O O O O O ",
"                # 6.7.8.9.0.q.w.e.r.t.y.u.i.p.> O O O O O O O O O O O O O O O O ",
"                # a.s.d.f.g.h.j.k.l.z.x.c.v.b.n.O O O O O O O O O O O O O O O O ",
"                ] m.M.N.B.V.C.Z.Z.A.S.D.F.G.H.O O O O O O O O O O O O O O O O O ",
"                ] J.K.L.P.I.U.Y.T.R.E.W.Q.!.~.O O O O O O O O O O O O O O O O O ",
"                ] ^./.(.)._.`.'.].[.{.}.|. X.XO O O O O O O O O O O O O O O O O ",
"                  XXoXOX+X@X#X$X%X&X*X=X-X;X:XO O O O O O O O O O O O O O O O O ",
"                  # >X,X<X1X2XO O 3X4X5X6X7X> O O O O O O O O O O O O O O O O O ",
"                  # 8X9X0XqXwXeXrXtXyXuXiXpXO O O O O O O O O O O O O O O O O O ",
"                    ] aXsXdXfXgXhXjXkXlXzXO O O O O O O O O O O O O O O O O O O ",
"                      , xXcX2 vXbX5.nXmXMXO O O O O O O O O O O O O O O O O O O ",
"                        # NXBXVXCXZXAXn.O O O O O O O O O O O O O O O O O O O O ",
"                          #   SXDX> O O O O O O O O O O O O O O O O O O O O O O ",
"                            . + @ O O O O O O O O O O O O O O O O O O O O O O O ",
"                            . X o O O O O O O O O O O O O O O O O O O O O O O O ",
"                            . X o O O O O O O O O O O O O O O O O O O O O O O O ",
"                            . X o O O O O O O O O O O O O O O O O O O O O O O O ",
"                            . X o O O O O O O O O O O O O O O O O O O O O O O O ",
"                            . X o O O O O O O O O O O O O O O O O O O O O O O O ",
"                            . X o O O O O O O O O O O O O O O O O O O O O O O O ",
"                            . X o O O O O O O O O O O O O O O O O O O O O O O O ",
"                            . X o O O O O O O O O O O O O O O O O O O O O O O O "
};
