/* XPM */
static char *_cf5b903f79c4a8ea51a5a42ca210a11vd44PASmQEybNpA9[] = {
/* columns rows colors chars-per-pixel */
"40 40 214 2 ",
"   c #604651",
".  c #047067",
"X  c #007168",
"o  c #C51637",
"O  c #504D55",
"+  c #007268",
"@  c #D40F33",
"#  c #C01939",
"$  c #3E5559",
"%  c #007269",
"&  c #D21034",
"*  c #B51E3C",
"=  c #2E5D5D",
"-  c #D50F33",
";  c #A8243F",
":  c #206360",
">  c #992B43",
",  c #156863",
"<  c #D40F34",
"1  c #883347",
"2  c #0C6C65",
"3  c #D11034",
"4  c #753C4C",
"5  c #066F67",
"6  c #D31034",
"7  c #CE1235",
"8  c #634550",
"9  c #027168",
"0  c #D30F34",
"q  c #C81537",
"w  c #D20F34",
"e  c #007167",
"r  c #006F66",
"t  c #D41B32",
"y  c #D31533",
"u  c #AE2742",
"i  c #7E9696",
"p  c #85BDB8",
"a  c #86BBB7",
"s  c #D20E35",
"d  c #DE4E26",
"f  c #D82F2D",
"g  c #D20E34",
"h  c #D30E33",
"j  c #E0526C",
"k  c #CAB6B9",
"l  c #B9B9B9",
"z  c #BBB9B9",
"x  c #EA8618",
"c  c #DF5224",
"v  c #D20D35",
"b  c #BB0E2E",
"n  c #CA0F32",
"m  c #D30F33",
"M  c #8C0F26",
"N  c #120709",
"B  c #050606",
"V  c #060606",
"C  c #A40C29",
"Z  c #7B131C",
"A  c #EEB10B",
"S  c #E9771C",
"D  c #C10C31",
"F  c #9B0C26",
"G  c #A70D29",
"H  c #75091D",
"J  c #060001",
"K  c black",
"L  c #D41035",
"P  c #AC0D2B",
"I  c #210108",
"U  c #2A1206",
"Y  c #D2B901",
"T  c #DC960E",
"R  c #540715",
"E  c #6B081B",
"W  c #CD0F33",
"Q  c #CE1033",
"!  c #620818",
"~  c #020000",
"^  c #D31433",
"/  c #D31733",
"(  c #5D0817",
")  c #200308",
"_  c #9F331B",
"`  c #8D7B01",
"'  c #645600",
"]  c #5E1014",
"[  c #CA1431",
"{  c #D41633",
"}  c #D21134",
"|  c #C80F32",
" . c #500614",
".. c #D92D2E",
"X. c #D17D15",
"o. c #231703",
"O. c #7F6306",
"+. c #E4AF19",
"@. c #4F4800",
"#. c #64580E",
"$. c #E4A81D",
"%. c #F0A710",
"&. c #F1AC10",
"*. c #E5731E",
"=. c #D41034",
"-. c #C00F30",
";. c #3E050F",
":. c #D31134",
">. c #D34C23",
",. c #7A6102",
"<. c #CABC35",
"1. c #888664",
"2. c #4E4D49",
"3. c #7D7C70",
"4. c #D9D59F",
"5. c #F1DF15",
"6. c #F4B60A",
"7. c #D8312C",
"8. c #B60E2D",
"9. c #29030A",
"0. c #DC5920",
"q. c #AA9542",
"w. c #34363A",
"e. c gray51",
"r. c #A1A1A2",
"t. c #A1A2A0",
"y. c #E2B24E",
"u. c #DA3528",
"i. c #D10D35",
"p. c #CC1232",
"a. c #552828",
"s. c #686B6B",
"d. c #5B5B5A",
"f. c gray59",
"g. c #8F9291",
"h. c #B35962",
"j. c #D01033",
"k. c #7C0B20",
"l. c #4D4549",
"z. c #A6A7AB",
"x. c #D8D9DC",
"c. c #D5D5D6",
"v. c #BBBEBB",
"b. c #7C3F4C",
"n. c #CF1034",
"m. c #D51035",
"M. c #950B25",
"N. c #29080F",
"B. c #AF8B54",
"V. c #CEC45C",
"C. c #D3C582",
"Z. c #DBCC60",
"A. c #E6D340",
"S. c #86492B",
"D. c #A80A29",
"F. c #9B0B26",
"G. c #7E0F1E",
"H. c #F0A60D",
"J. c #FAD800",
"K. c #DF6320",
"L. c #E98C14",
"P. c #FEE300",
"I. c #CF6918",
"U. c #A00929",
"Y. c #D00E34",
"T. c #D4282E",
"R. c #F5BE0A",
"E. c #E46C1E",
"W. c #D51E31",
"Q. c #EE9F11",
"!. c #ED9514",
"~. c #8D0F27",
"^. c #DC4129",
"/. c #E5701D",
"(. c #D31333",
"). c #D7282E",
"_. c #E87C1A",
"`. c #D10D34",
"'. c #DD516E",
"]. c #C8B5BC",
"[. c #B7B9BC",
"{. c #B8B9BC",
"}. c #D52130",
"|. c #D31832",
" X c #D52030",
".X c #D31532",
"XX c #DB3C30",
"oX c #F7CE66",
"OX c #FFF587",
"+X c #FFF486",
"@X c #D82E2D",
"#X c #F3B60C",
"$X c #FDE300",
"%X c #FCE100",
"&X c #D62330",
"*X c #F0A60F",
"=X c #FDE400",
"-X c #FCE200",
";X c #E98218",
":X c #FCE000",
">X c #E56F1D",
",X c #FBDC01",
"<X c #E15D22",
"1X c #FAD603",
"2X c #DE4B26",
"3X c #F8CE05",
"4X c #FCE300",
"5X c #DB3B2A",
"6X c #F6C308",
"7X c #FCE400",
"8X c #EC9514",
"9X c #E98518",
"0X c #FBDE01",
"qX c white",
/* pixels */
"  . X X X X X X X X X X X X X X X X X X X X X X X X X X X X X X X X X X X X X X ",
"o O + X X X X X X X X X X X X X X X X X X X X X X X X X X X X X X X X X X X X X ",
"@ # $ % X X X X X X X X X X X X X X X X X X X X X X X X X X X X X X X X X X X X ",
"& @ * = % X X X X X X X X X X X X X X X X X X X X X X X X X X X X X X X X X X X ",
"& & - ; : % X X X X X X X X X X X X X X X X X X X X X X X X X X X X X X X X X X ",
"& & & - > , + X X X X X X X X X X X X X X X X X X X X X X X X X X X X X X X X X ",
"& & & & < 1 2 + X X X X X X X X X X X X X X X X X X X X X X X X X X X X X X X X ",
"& & & & & 3 4 5 X X X X X X X X X X X X X X X X X X X X X X X X X X X X X X X X ",
"& & & & & 6 7 8 9 X X X X X X X X X X X X X X X X X X X X X X X X X X X X X X X ",
"& & & & & & 0 q O + X X X X X X X X X X X X X X X X X X X X X X X X X X X X X X ",
"& & & & & & & < # $ % X X X X X X X X X X X X X X X X X X X X X X X X X X X X X ",
"& & & & & w & & @ * = e r r r r r r r r r r r r r r r r r r r r r r r r r r r r ",
"& & & & w t y & & @ u i p a a a a a a a a a a a a a a a a a a a a a a a a a a a ",
"& & & & s d f g & & h j k l z z z z z z z z z z z z z z z z z z z z z z z z z z ",
"& & & 6 w x c v 6 b n m M N B V V V V V V V V V V V V V V V V V V V V V V V V V ",
"& & 3 C Z A S D F G & & 3 H J K K K K K K K K K K K K K K K K K K K K K K K K K ",
"& L P I U Y T R E W & & 6 Q ! ~ K K K K K K K K K K K K K K K K K K K K K K K K ",
"^ / ( ) _ ` ' ] [ { / } & 6 |  .K K K K K K K K K K K K K K K K K K K K K K K K ",
"..X.o.O.+.@.#.$.%.&.*.y & & =.-.;.K K K K K K K K K K K K K K K K K K K K K K K ",
":.>.,.<.1.2.3.4.5.6.7.w & & & L 8.9.K K K K K K K K K K K K K K K K K K K K K K ",
"& w 0.q.w.e.r.t.y.u.i.& & & & L 8.9.K K K K K K K K K K K K K K K K K K K K K K ",
"& 6 p.a.s.d.f.g.h.h & & & & =.-.;.K K K K K K K K K K K K K K K K K K K K K K K ",
"& j.k.l.z.x.c.v.b.n.& & & 6 |  .K K K K K K K K K K K K K K K K K K K K K K K K ",
"m.M.N.B.V.C.Z.A.S.D.=.& 6 Q ! ~ K K K K K K K K K K K K K K K K K K K K K K K K ",
"m.F.G.H.J.K.L.P.I.U.6 & 3 H J K K K K K K K K K K K K K K K K K K K K K K K K K ",
"& Y.T.R.E.w W.Q.!.} & m ~.N B V V V V V V V V V V V V V V V V V V V V V V V V V ",
"& v ^./.(.w g )._.W.`.'.].[.{.{.{.{.{.{.{.{.{.{.{.{.{.{.{.{.{.{.{.{.{.{.{.{.{.{.",
"& w }.|.w & & g  X.XXXoXOX+X+X+X+X+X+X+X+X+X+X+X+X+X+X+X+X+X+X+X+X+X+X+X+X+X+X+X",
"& & w w & & & & i.@X#X$X%X%X%X%X%X%X%X%X%X%X%X%X%X%X%X%X%X%X%X%X%X%X%X%X%X%X%X%X",
"& & & & & & & g &X*X=X%X%X%X%X%X%X%X%X%X%X%X%X%X%X%X%X%X%X%X%X%X%X%X%X%X%X%X%X%X",
"& & & & & & w t !.-X%X%X%X%X%X%X%X%X%X%X%X%X%X%X%X%X%X%X%X%X%X%X%X%X%X%X%X%X%X%X",
"& & & & & w y ;X:X%X%X%X%X%X%X%X%X%X%X%X%X%X%X%X%X%X%X%X%X%X%X%X%X%X%X%X%X%X%X%X",
"& & & & & } >X,X-X%X%X%X%X%X%X%X%X%X%X%X%X%X%X%X%X%X%X%X%X%X%X%X%X%X%X%X%X%X%X%X",
"& & & & w <X1X-X%X%X%X%X%X%X%X%X%X%X%X%X%X%X%X%X%X%X%X%X%X%X%X%X%X%X%X%X%X%X%X%X",
"& & & i.2X3X4X%X%X%X%X%X%X%X%X%X%X%X%X%X%X%X%X%X%X%X%X%X%X%X%X%X%X%X%X%X%X%X%X%X",
"& & i.5X6X4X%X%X%X%X%X%X%X%X%X%X%X%X%X%X%X%X%X%X%X%X%X%X%X%X%X%X%X%X%X%X%X%X%X%X",
"& s @X#X=X%X%X%X%X%X%X%X%X%X%X%X%X%X%X%X%X%X%X%X%X%X%X%X%X%X%X%X%X%X%X%X%X%X%X%X",
"g &X*X7X%X%X%X%X%X%X%X%X%X%X%X%X%X%X%X%X%X%X%X%X%X%X%X%X%X%X%X%X%X%X%X%X%X%X%X%X",
"W.8X4X%X%X%X%X%X%X%X%X%X%X%X%X%X%X%X%X%X%X%X%X%X%X%X%X%X%X%X%X%X%X%X%X%X%X%X%X%X",
"9X0X%X%X%X%X%X%X%X%X%X%X%X%X%X%X%X%X%X%X%X%X%X%X%X%X%X%X%X%X%X%X%X%X%X%X%X%X%X%X"
};
